<svg width="33" height="33" viewBox="0 0 33 33" xmlns="http://www.w3.org/2000/svg"><title>logo_square</title><g id="Page-1" fill="none" fill-rule="evenodd"><g id="logo_square"><path d="M0 33h33V0H0v33z" id="Fill-1" fill="#940026"/><path d="M24 13.288h-.217c-.287-1.054-1.752-3.76-2.784-3.905-.552-.07-1.248-.096-1.85-.096h-1.054v14.397c0 .527.19.957.743 1.196.288.12 1.512.29 1.944.312v.168h-8.568v-.168c.432-.023 1.632-.143 1.944-.264.576-.214.744-.67.744-1.197V9.288h-1.032c-.552 0-1.32.025-1.848.096-1.032.145-2.52 2.85-2.808 3.905H9V9h15v4.288" id="Fill-2" fill="#FFF"/></g></g></svg>