<?xml version="1.0" encoding="utf-8"?>
<!-- Generator: Adobe Illustrator 16.0.4, SVG Export Plug-In . SVG Version: 6.00 Build 0)  -->
<!DOCTYPE svg PUBLIC "-//W3C//DTD SVG 1.1//EN" "http://www.w3.org/Graphics/SVG/1.1/DTD/svg11.dtd">
<svg version="1.1" id="Calque_1" xmlns="http://www.w3.org/2000/svg" xmlns:xlink="http://www.w3.org/1999/xlink" x="0px" y="0px"
	 width="434.575px" height="129.019px" viewBox="0 0 434.575 129.019" enable-background="new 0 0 434.575 129.019"
	 xml:space="preserve">
<g>
	<g>
		<path fill-rule="evenodd" clip-rule="evenodd" fill="#FFFFFF" d="M301.663,96.686c2.122,0.744,17.707-5.878,21.422-9.115
			c2.37,1.495,2.407,3.526,0.127,4.834c-6.131,3.52-12.323,6.942-18.323,10.67c-1.916,1.189-3.922,2.966-4.739,4.946
			c-0.58,1.403,0.479,3.753,1.347,5.396c0.618,1.174,2.027,1.631,3.65,0.797c3.081-1.584,6.371-2.765,9.431-4.387
			c1.353-0.717,2.787-1.896,3.417-3.228c1.202-2.545,2.866-1.005,4.386-0.954c-0.256,1.284-0.151,2.838-0.858,3.786
			c-0.953,1.278-2.45,2.225-3.856,3.076c-4.79,2.901-9.569,5.836-14.496,8.49c-3.729,2.009-10.562-1.849-9.99-7.298
			c0.152-1.442-0.154-2.941,0.059-4.368c0.547-3.659,1.135-7.324,1.972-10.925c0.458-1.969,1.496-3.797,2.176-5.723
			c0.15-0.428-0.261-1.04-0.142-1.496c0.348-1.335,1.021-2.605,1.218-3.952c0.277-1.895,2.277-3.335,0.528-5.937
			c-0.812-1.209,0.753-4.619,2.031-6.491c1.903-2.787,4.508-5.096,7.303-8.141c-1.352-0.146-2.392-0.449-3.376-0.323
			c-1.697,0.217-3.346,0.625-5.006-0.174c-2.855-1.374-4.842,0.871-6.751,2.091c-5.223,3.335-9.121,8.08-11.579,13.741
			c-1.348,3.107-1.998,6.563-2.625,9.926c-0.849,4.549-1.656,9.141-1.945,13.748c-0.234,3.743-0.012,7.593,0.625,11.289
			c0.568,3.297,1.373,3.514,4.168,1.275c0.612,4.567-3.576,8.258-7.591,6.284c-1.427-0.702-2.253-3.119-2.845-4.919
			c-1.182-3.597-1.131-7.234-0.35-11.041c0.652-3.178-0.252-6.671,0.367-9.861c1.371-7.06,0.913-14.484,5.159-21.03
			c1.737-2.678,3.044-5.612,5.495-7.771c0.819-0.721,1.793-1.266,2.697-1.89c0.414-0.286,0.83-0.568,1.246-0.852
			c-0.479-0.328-0.979-0.964-1.433-0.933c-2.046,0.142-4.229,0.087-6.09,0.807c-5.477,2.119-10.845,4.457-15.19,8.711
			c-0.781,0.765-2.998,0.062-5.096,0.029c-0.85,2.042-2.137,4.888-3.224,7.808c-1.253,3.366-2.25,6.827-3.505,10.191
			c-1.19,3.194-2.548,6.308-2.053,9.857c0.464,3.324-0.938,6.832,1.161,10.057c0.317,0.488-0.608,1.953-1.19,2.808
			c-0.433,0.634-1.242,1.012-1.922,1.532c-1.073-0.419-2.191-0.856-3.125-1.222c-0.132-1.412-0.233-2.767-0.39-4.115
			c-0.347-3.003-1.115-6.021-0.982-8.999c0.157-3.528,0.942-7.053,1.715-10.521c0.663-2.978,1.577-5.913,2.582-8.796
			c1.411-4.047,2.752-8.156,4.655-11.973c0.781-1.567,2.949-2.443,4.82-3.891c1.132-1.716,2.57-3.898,4.01-6.08
			c-0.225-0.238-0.448-0.479-0.672-0.717c-5.086,1.783-10.147,3.646-15.274,5.305c-1.67,0.54-3.568,0.353-5.26,0.847
			c-3.008,0.879-5.88,2.301-8.925,2.935c-1.409,0.293-3.546-0.27-4.553-1.259c-1.818-1.79-0.292-4.938,2.384-5.548
			c3.81-0.87,7.608-1.793,11.429-2.619c4.054-0.875,8.139-1.61,12.188-2.512c2.964-0.659,5.862-1.639,8.842-2.197
			c2.639-0.495,5.347-0.711,8.032-0.813c0.638-0.024,1.658,0.772,1.882,1.41c0.299,0.849,0.3,2.082-0.123,2.843
			c-0.777,1.396-1.957,2.568-2.97,3.834c0.169,0.232,0.339,0.465,0.509,0.698c0.971-0.276,1.938-0.572,2.914-0.826
			c5.402-1.402,10.775-3.742,16.221-3.93c5.763-0.198,11.789-0.851,17.547,1.263c1.62,0.595,2.45,1.103,2.556,2.858
			c0.054,0.906,0.666,1.777,0.955,2.488c3.68-2.571,7.18-5.036,10.7-7.472c4.77-3.301,9.486-6.688,14.357-9.832
			c4.205-2.714,8.639-5.068,12.887-7.721c2.989-1.867,5.758-4.089,8.764-5.928c4.029-2.466,8.195-4.71,12.296-7.06
			c3.325-1.904,6.578-3.944,9.98-5.698c3.038-1.567,6.27-2.758,9.357-4.236c4.178-2.002,8.249-4.23,12.458-6.16
			c4.814-2.207,9.682-4.315,14.612-6.242c5.021-1.963,10.123-3.732,15.245-5.416c1.602-0.526,3.385-0.5,5.085-0.727
			c0.132,0.347,0.263,0.692,0.395,1.039c-1.823,0.96-3.609,2.002-5.479,2.862c-4.767,2.193-9.56,4.335-14.366,6.441
			c-5.026,2.202-10.188,4.123-15.099,6.558c-6.129,3.039-12.056,6.483-18.079,9.735c-2.523,1.362-5.116,2.604-7.602,4.032
			c-4.162,2.39-8.267,4.879-12.391,7.336c-4.723,2.815-9.537,5.491-14.136,8.496c-6.241,4.078-12.295,8.443-18.47,12.624
			c-4.894,3.312-10.099,6.235-14.604,10.001c-1.133,0.946-3.813,2.604-2.998,5.444c0.126,0.44-0.785,1.213-1.269,1.789
			c-1.979,2.366-4.146,4.643-1.657,7.993c0.348,0.469,0.048,1.417,0.048,2.354C303.598,88.054,303.825,93.104,301.663,96.686z"/>
		<path fill-rule="evenodd" clip-rule="evenodd" fill="#FFFFFF" d="M121.154,116.373c0-6.63,0-13.259,0-20.017
			c-0.356-0.019-1.035-0.231-1.186-0.036c-2.316,3.001-7.086,2.693-8.788,6.541c-0.21,0.474-1.037,1.053-1.479,0.979
			c-2.539-0.419-3.014,1.63-4.084,3.091c-3.143,4.297-5.524,9.055-8.383,13.518c-0.722,1.126-1.982,1.95-3.101,2.768
			c-1.356,0.992-2.414,0.258-3.177-0.916c-1.705-2.627-2.359-5.422-2.484-8.657c-0.247-6.369,1.226-12.431,2.442-18.531
			c0.741-3.718,2.284-7.273,3.396-10.923c0.172-0.563-0.039-1.243-0.088-2.17c-5.383,3.323-10.461,6.547-15.638,9.603
			c-1.663,0.982-3.57,1.564-5.392,2.262c-4.518,1.729-5.11,6.043-6.455,9.822c-1.119,3.148-2.143,6.341-3.027,9.562
			c-0.934,3.396-1.684,6.846-2.448,10.285c-0.308,1.386-0.442,2.81-0.632,4.056c-1.225,0.49-2.271,0.909-3.522,1.409
			c-0.655-3.291-0.14-6.352,0.488-9.674c0.51-2.696,1.616-5.321,1.727-8.171c0.067-1.732,1.285-3.413,1.939-5.135
			c0.521-1.372,0.909-2.795,1.463-4.152c1.216-2.981-2.294-4.667-1.76-7.776c3.882-2.168,6.86-5.675,8.488-10.214
			c1.04-2.899,1.838-5.884,2.729-8.835c0.103-0.343,0.002-0.771,0.164-1.067c3.496-6.404,4.555-13.492,5.519-20.55
			c0.357-2.614,1.585-4.13,3.716-5.098c2.028-0.921,3.14-0.19,2.811,2.073c-0.48,3.3-1.35,6.548-2.136,9.797
			c-0.75,3.097-1.514,6.196-2.446,9.24c-0.689,2.252-1.634,4.427-2.509,6.619c-1.252,3.138-2.576,6.246-3.774,9.403
			c-0.136,0.358,0.339,0.949,0.4,1.104c4.473-1.751,8.906-3.287,13.153-5.231c2.265-1.035,4.262-2.703,6.278-4.221
			c1.53-1.15,3.041-2.391,4.294-3.824c0.865-0.989,1.224-2.406,1.897-3.581c2.077-3.617,4.129-7.251,6.333-10.79
			c0.856-1.376,2.452-2.229,3.773-0.927c0.81,0.799,1.176,2.464,1.079,3.688c-0.35,4.38-2.495,8.117-4.429,11.994
			c-2.55,5.11-4.524,10.512-6.662,15.822c-1.426,3.543-3.2,6.984-3.938,10.755c-0.822,4.208-1.385,8.467-2.062,12.703
			c0.4,0.164,0.8,0.328,1.199,0.492c1.115-1.551,2.297-3.06,3.33-4.665c1.46-2.269,3.154-4.472,4.138-6.945
			c2.3-5.788,6.583-10.287,9.824-15.439c1.782-2.834,2.635-6.325,5.708-8.604c1.806-1.339,2.448-4.296,3.516-6.57
			c1.188-2.532,3.383-3.718,5.847-2.814c0.568,0.208,1.215,1.075,1.265,1.685c0.275,3.37,0.44,6.753,0.504,10.135
			c0.021,1.102-0.384,2.211-0.579,3.319c-0.069,0.391-0.153,0.794-0.126,1.185c0.067,0.955,0.197,1.906,0.302,2.859
			c-0.22,0.1-0.44,0.2-0.661,0.301c1.032,0.631,2.063,1.262,3.56,2.176c-1.047,1.38-2.405,2.585-2.998,4.092
			c-0.826,2.101-1.24,4.405-1.529,6.661c-0.242,1.883,0.11,3.839-0.091,5.732c-0.251,2.361-0.523,4.791-1.326,6.995
			c-0.469,1.287-1.991,2.189-3.039,3.266C122.043,116.678,121.599,116.525,121.154,116.373z M114.473,92.565
			c2.572-0.52,4.429-0.726,6.149-1.322c0.755-0.261,1.747-1.323,1.744-2.019c-0.01-2.552-0.391-5.101-0.632-7.651
			c-0.223-0.082-0.444-0.164-0.667-0.246C118.977,84.891,116.886,88.453,114.473,92.565z"/>
		<path fill-rule="evenodd" clip-rule="evenodd" fill="#FFFFFF" d="M59.906,94.402c-0.453,1.744-0.783,3.011-1.073,4.128
			c-2.819,1.71-5.659,3.311-8.364,5.114c-1.97,1.314-3.616,3.153-5.662,4.305c-4.081,2.299-8.281,4.41-12.541,6.359
			c-3.311,1.516-6.697,3.07-10.219,3.846c-2.489,0.549-5.335,0.155-7.883-0.426c-2.459-0.562-4.758-1.859-7.092-2.913
			c-2.291-1.034-5.625-7.273-5.771-9.825c-0.135-2.353-0.826-4.673-1.271-7.007c-0.018-0.09-0.035-0.183-0.027-0.271
			c0.195-2.591,0.373-5.184,0.607-7.771c0.055-0.604,0.416-1.185,0.44-1.785c0.295-7.013,2.24-13.503,5.134-19.927
			c2.52-5.596,5.419-10.831,9.074-15.726c2.308-3.089,4.288-6.418,6.516-9.57c1.72-2.434,3.504-4.834,5.421-7.115
			c3.324-3.953,6.69-7.879,10.208-11.66c1.429-1.537,3.856-2.342,4.843-4.051c1.755-3.038,4.262-4.944,7.212-6.359
			c2.56-1.227,4.904-2.868,8.291-1.902c2.664,0.761,3.306,2.836,4.537,4.501c1.509,2.04,2.529,4.441,3.9,6.942
			c-0.107,0.36-0.518,1.117-0.532,1.882c-0.091,4.659-0.058,9.32-0.166,13.979c-0.016,0.626-0.751,1.206-0.897,1.864
			c-0.429,1.916-0.852,3.848-1.054,5.797c-0.469,4.538-0.756,9.095-1.26,13.628c-0.065,0.587-0.93,1.454-1.515,1.534
			c-1.164,0.161-2.393-0.134-4.078-0.283c0.253-1.301,0.484-2.487,0.687-3.53c-0.208-0.694-0.65-1.473-0.635-2.241
			c0.052-2.731,0.186-5.382,2.11-7.743c0.682-0.836,0.149-2.642,0.218-4.003c0.12-2.379,0.573-4.786,0.332-7.124
			c-0.246-2.38,0.699-4.222,1.517-6.235c0.133-0.327-0.819-1.095-1.414-1.84c0.519-1.301,1.489-2.855-0.16-4.614
			c-0.663-0.706-0.394-2.234-1-3.055c-3.008-4.063-7.073-4.066-10.679-0.431c-2.825,2.848-5.933,5.416-8.919,8.104
			c-0.401,0.361-0.899,0.64-1.228,1.056c-4.659,5.904-9.422,11.732-13.894,17.776c-2.655,3.59-5.022,7.427-7.192,11.335
			c-2.156,3.887-4.077,7.928-5.783,12.033C8.427,76.51,8.124,82.27,7.217,87.911c-0.581,3.622,0.369,6.954,0.444,10.423
			c0.126,5.829,4.898,12.433,9.918,13.548c3.804,0.846,7.628,0.328,11.247-1.083c2.705-1.054,5.358-2.276,7.938-3.611
			c3.866-2.001,7.636-4.187,11.47-6.252c2.11-1.138,4.297-2.136,6.395-3.296C56.329,96.7,57.947,95.612,59.906,94.402z"/>
		<path fill-rule="evenodd" clip-rule="evenodd" fill="#FFFFFF" d="M218.152,85.512c-2.75,0.783-5.5,1.266-7.966,2.377
			c-1.641,0.74-2.843,2.422-4.303,3.605c-0.931,0.754-2.13,1.225-2.924,2.085c-0.749,0.812-1.281,1.917-1.629,2.984
			c-0.476,1.465-0.711,3.28-2.723,2.922c-3.772-0.671-4.712,2.223-6.004,4.528c-1.948,3.475-3.495,7.184-5.571,10.573
			c-0.557,0.911-2.412,1.026-3.446,1.421c-0.991-1.088-1.815-1.992-2.96-3.248c1.816-2.95,3.925-6.396,6.053-9.828
			c2.3-3.71,4.549-7.454,6.943-11.102c3.963-6.031,7.966-12.039,12.069-17.976c2.361-3.415,4.865-6.743,7.469-9.979
			c2.646-3.287,5.59-3.172,7.771-0.668c0.741,0.851,0.883,2.275,1.157,3.469c0.768,3.345,1.58,6.686,2.133,10.067
			c0.265,1.624,0.612,2.455,2.474,2.071c0.762-0.156,1.641,0.26,3.081,0.53c-0.997,1.078-1.513,1.803-2.183,2.329
			c-2.086,1.642-2.881,4.554-1.918,6.952c0.384,0.956,0.674,1.996,0.76,3.019c0.419,4.948,0.827,9.901,1.081,14.859
			c0.099,1.933-0.62,3.756-3.015,3.326c-0.91-0.164-2.042-1.33-2.336-2.271c-0.916-2.926-1.56-5.946-2.154-8.961
			c-0.514-2.598-0.832-5.234-1.205-7.859C218.557,88.977,218.362,87.204,218.152,85.512z M217.053,81.299
			c-0.661-3.656-1.247-6.898-1.875-10.371c-3.299,4.478-6.409,8.7-9.965,13.527C209.563,83.295,213.25,82.312,217.053,81.299z"/>
		<path fill-rule="evenodd" clip-rule="evenodd" fill="#FFFFFF" d="M137.372,122.155c-3.361-4.185-4.221-8.802-3.837-13.599
			c0.215-2.679,1.202-5.296,1.836-7.942c0.457-1.909,0.701-3.898,1.397-5.715c1.474-3.845,3.179-7.601,4.793-11.39
			c0.581-1.364,0.856-3.051,1.84-4.006c1.468-1.426,2.512-2.877,3.269-4.804c0.812-2.064,2.061-4.067,3.526-5.739
			c2.344-2.672,4.64-5.912,7.687-7.271c2.348-1.045,3.485-3.569,6.095-3.89c1.835-0.226,3.68-0.95,5.471-0.815
			c2.169,0.165,3.347,4.443,1.958,7.004c-1.959,3.611-3.781,7.365-6.249,10.613c-2.389,3.144-5.288,6.025-8.419,8.427
			c-1.599,1.226-4.198,1.146-6.684,1.735c-0.94,2.595-2.066,5.653-3.146,8.729c-0.203,0.578-0.229,1.22-0.317,1.835
			c-0.424,2.979-0.667,5.995-1.304,8.928c-0.86,3.977-2.205,7.853-2.992,11.84C141.708,119.072,139.25,120.154,137.372,122.155z
			 M162.936,66.014c-3.48,3.297-6.511,6.375-9.121,10.452C157.46,75.969,162.685,69.873,162.936,66.014z"/>
		<path fill-rule="evenodd" clip-rule="evenodd" fill="#FFFFFF" d="M178.264,83.218c-0.425,1.229-0.877,2.45-1.27,3.689
			c-1.701,5.369-3.629,10.684-4.969,16.142c-0.658,2.681-0.159,5.634-0.287,8.459c-0.143,3.163-1.289,5.743-4.505,6.947
			c-3.271-3.379-1.895-7.602-1.989-11.499c-0.093-3.793,0.043-7.62,0.469-11.388c0.326-2.896,1.207-5.737,1.943-8.576
			c0.507-1.954,1.065-3.913,1.818-5.782c1.903-4.724,3.357-9.649,6.309-13.91c1.738-2.511,3.336-5.12,5.014-7.674
			c0.141-0.215,0.398-0.375,0.634-0.504c1.885-1.038,3.767-2.085,5.671-3.088c4.367-2.301,8.603-1.72,12.139,1.477
			c1.047,0.946,1.034,3.386,1.012,5.134c-0.078,5.849-3.586,10.09-6.951,14.447c-2.751,3.562-6.254,5.93-10.26,7.734
			c-1.802,0.812-3.438,1.226-4.08-1.557C178.729,83.252,178.496,83.235,178.264,83.218z M187.619,76.186
			c0.712-1.173,1.205-2.484,2.11-3.379c1.977-1.953,2.986-4.402,3.815-6.911c0.283-0.854,0.052-2.521-0.521-2.872
			c-0.954-0.582-3.097-0.947-3.474-0.448c-1.729,2.291-6.531,1.773-5.799,6.249c0.034,0.213-0.158,0.534-0.34,0.701
			c-2.55,2.329-3.137,5.326-2.902,8.582c0.042,0.582,0.153,1.432,0.526,1.646c0.402,0.231,1.251,0.021,1.729-0.276
			C184.473,78.41,186.106,77.224,187.619,76.186z"/>
	</g>
</g>
</svg>
